# xmcd
#
# Track frame offsets: 
#        183
#        27408
#        55008
#        70383
#        85083
#        99258
#        108333
#        118158
#        128283
#        140658
#        151158
#        185058
#        202008
#        234933
#        245808
#        263658
#        283308
#
# Disc length: 4102 seconds
#
# Revision: 2
# Processed by: cddbd v1.5.2PL0 Copyright (c) Steve Scherf et al.
# Submitted via: ExactAudioCopy v0.95b4
#
DISCID=f1100411
DTITLE=Jessye Norman - Jessye Norman. Les Triomphes de Jessye Norman
DYEAR=1987
DGENRE=Vocal
TTITLE0=Sanctus
TTITLE1=Ave Maria
TTITLE2=Amazing Grace
TTITLE3=I Couldnt'hear Nobody Pray
TTITLE4=There's A Man Going Round
TTITLE5=Ev'ry Time I Feel De Spirit
TTITLE6=Great Day
TTITLE7=Falling In Love With Love
TTITLE8=I Love Paris
TTITLE9=I Love You
TTITLE10=Wo Die SchoëNen Trompeten Blasen
TTITLE11=FrüHling
TTITLE12=Mort D'isolde
TTITLE13=Les Nuits D'éRé
TTITLE14=Les Chemins De L'amour
TTITLE15=Je Te Veux
TTITLE16=Mort De Didon
EXTD=
EXTT0=
EXTT1=
EXTT2=
EXTT3=
EXTT4=
EXTT5=
EXTT6=
EXTT7=
EXTT8=
EXTT9=
EXTT10=
EXTT11=
EXTT12=
EXTT13=
EXTT14=
EXTT15=
EXTT16=
PLAYORDER=
